<svg width="20" height="20" viewBox="0 0 20 20" fill="none" xmlns="http://www.w3.org/2000/svg">
<path d="M18.125 5.00003H1.875C1.52982 5.00003 1.25 5.27985 1.25 5.62503V14.375C1.25 14.7202 1.52982 15 1.875 15H18.125C18.4702 15 18.75 14.7202 18.75 14.375V5.62503C18.75 5.27985 18.4702 5.00003 18.125 5.00003Z" stroke="#C6C8D2" stroke-width="1.5" stroke-linecap="round" stroke-linejoin="round"/>
<path d="M10 12.5C11.3807 12.5 12.5 11.3807 12.5 10C12.5 8.61932 11.3807 7.50003 10 7.50003C8.61929 7.50003 7.5 8.61932 7.5 10C7.5 11.3807 8.61929 12.5 10 12.5Z" stroke="#C6C8D2" stroke-width="1.5" stroke-linecap="round" stroke-linejoin="round"/>
<path d="M13.75 5.00003L18.75 9.37503" stroke="#C6C8D2" stroke-width="1.5" stroke-linecap="round" stroke-linejoin="round"/>
<path d="M13.75 15L18.75 10.625" stroke="#C6C8D2" stroke-width="1.5" stroke-linecap="round" stroke-linejoin="round"/>
<path d="M6.25 5.00003L1.25 9.37503" stroke="#C6C8D2" stroke-width="1.5" stroke-linecap="round" stroke-linejoin="round"/>
<path d="M6.25 15L1.25 10.625" stroke="#C6C8D2" stroke-width="1.5" stroke-linecap="round" stroke-linejoin="round"/>
</svg>
