<svg width="20" height="20" viewBox="0 0 20 20" fill="none" xmlns="http://www.w3.org/2000/svg">
<path d="M17.475 5.168L10.6 1.40628C10.4163 1.30478 10.2099 1.25154 10 1.25154C9.79013 1.25154 9.58369 1.30478 9.4 1.40628L2.525 5.16956C2.32866 5.27699 2.16477 5.43515 2.05043 5.62755C1.93609 5.81994 1.87551 6.03951 1.875 6.26331V13.7352C1.87551 13.959 1.93609 14.1786 2.05043 14.3709C2.16477 14.5633 2.32866 14.7215 2.525 14.8289L9.4 18.5922C9.58369 18.6937 9.79013 18.747 10 18.747C10.2099 18.747 10.4163 18.6937 10.6 18.5922L17.475 14.8289C17.6713 14.7215 17.8352 14.5633 17.9496 14.3709C18.0639 14.1786 18.1245 13.959 18.125 13.7352V6.26409C18.1249 6.03989 18.0645 5.81984 17.9502 5.62699C17.8358 5.43415 17.6717 5.27561 17.475 5.168ZM10 2.50003L16.2766 5.93753L13.9508 7.21097L7.67344 3.77347L10 2.50003ZM10 9.37503L3.72344 5.93753L6.37187 4.48753L12.6484 7.92503L10 9.37503ZM3.125 7.03128L9.375 10.4516V17.1539L3.125 13.736V7.03128ZM16.875 13.7328L10.625 17.1539V10.4547L13.125 9.08675V11.875C13.125 12.0408 13.1908 12.1998 13.3081 12.317C13.4253 12.4342 13.5842 12.5 13.75 12.5C13.9158 12.5 14.0747 12.4342 14.1919 12.317C14.3092 12.1998 14.375 12.0408 14.375 11.875V8.40237L16.875 7.03128V13.7321V13.7328Z" fill="white"/>
</svg>
